<svg xmlns="http://www.w3.org/2000/svg" xmlns:xlink="http://www.w3.org/1999/xlink" viewBox="0 0 370.212 97.649">
  <defs>
    <style>
      .cls-1, .cls-6, .cls-7, .cls-8 {
        stroke: #fcd109;
      }

      .cls-1, .cls-10, .cls-11, .cls-2, .cls-3, .cls-4, .cls-5, .cls-6, .cls-7, .cls-8, .cls-9 {
        stroke-width: 0.094px;
      }

      .cls-1 {
        fill: url(#linear-gradient);
      }

      .cls-2 {
        fill: #f8f3b5;
        stroke: #f8f3b5;
      }

      .cls-3 {
        fill: #f7b402;
        stroke: #f7b402;
      }

      .cls-4 {
        fill: #bda727;
        stroke: #bda727;
      }

      .cls-5 {
        fill: #f7e62d;
        stroke: #f7e62d;
      }

      .cls-6 {
        fill: url(#radial-gradient);
      }

      .cls-7 {
        fill: url(#linear-gradient-2);
      }

      .cls-8 {
        fill: url(#linear-gradient-3);
      }

      .cls-9 {
        fill: #0d69b3;
        stroke: #0d69b3;
      }

      .cls-10 {
        fill: #107bd4;
        stroke: #107bd4;
      }

      .cls-11, .cls-14 {
        fill: #fff;
        stroke: #fff;
      }

      .cls-12 {
        clip-path: url(#clip-path);
      }

      .cls-13 {
        fill: none;
        stroke: #d1d1d1;
        stroke-width: 2px;
      }

      .cls-14 {
        stroke-width: 0.101px;
      }
    </style>
    <linearGradient id="linear-gradient" x1="0.5" y1="0.635" x2="0.5" y2="-0.365" gradientUnits="objectBoundingBox">
      <stop offset="0" stop-color="#f7e830"/>
      <stop offset="1" stop-color="#fdcb06"/>
    </linearGradient>
    <radialGradient id="radial-gradient" cx="94.085" cy="101.853" r="429.397" gradientTransform="matrix(0.154, 0, 0, -0.154, 41.158, 61.432)" gradientUnits="userSpaceOnUse">
      <stop offset="0.596" stop-color="#f29405"/>
      <stop offset="0.736" stop-color="#f7d01e"/>
      <stop offset="1" stop-color="#fdcb06"/>
    </radialGradient>
    <linearGradient id="linear-gradient-2" x1="0.491" y1="11.655" x2="0.499" y2="10.674" gradientUnits="objectBoundingBox">
      <stop offset="0" stop-color="#fada1c"/>
      <stop offset="1" stop-color="#fdcb06"/>
    </linearGradient>
    <linearGradient id="linear-gradient-3" x1="101.001" y1="11.748" x2="101.009" y2="10.768" xlink:href="#linear-gradient-2"/>
    <clipPath id="clip-path">
      <path id="Path_15" data-name="Path 15" d="M282.559,189.642a1.463,1.463,0,0,1-.124-.69l-.111.014a1.569,1.569,0,0,0-1.338-1.214c-.5-.041-1.117-.028-1.407.441-.552.745-.29,1.7-.317,2.538,0,.055.014.152.014.207a9.64,9.64,0,0,1-.166,1.669,1.186,1.186,0,0,0-.124.538,12.72,12.72,0,0,1-1.338,3.752,1.392,1.392,0,0,0-.262.538,18.635,18.635,0,0,1-1.421,2.041,1.768,1.768,0,0,0-.221.234,13.475,13.475,0,0,1-1.145,1.2c-.1.055-.165.124-.248.179a8.983,8.983,0,0,1-1.559,1.228c-.069.041-.138.1-.221.152a22.179,22.179,0,0,1-12,3.338,22.415,22.415,0,0,1-10.318-2.179c-.055-.028-.193-.083-.248-.11a13.8,13.8,0,0,1-1.586-.9c-.11-.055-.221-.124-.345-.179a10.543,10.543,0,0,1-1.448-1.021c-.152-.138-.317-.248-.483-.372a11.689,11.689,0,0,1-1.434-1.31c-.11-.124-.221-.234-.331-.345a13.748,13.748,0,0,1-3.3-5.531,17.035,17.035,0,0,1-.579-5.159,1.849,1.849,0,0,0-2.372-.717c-.345.248-.386.7-.648,1.021A16.2,16.2,0,0,0,242.1,201.38a.224.224,0,0,0,.152.221c.552.51,1.089,1.035,1.641,1.531a2.195,2.195,0,0,0,.331.276c.552.455,1.145.869,1.724,1.3a2.936,2.936,0,0,0,.345.221,15.513,15.513,0,0,0,2.29,1.269,1.8,1.8,0,0,0,.207.138,24.871,24.871,0,0,0,8.345,2.386,4.459,4.459,0,0,1,.952.1c1.379.083,2.759.041,4.138.014,4.262-.372,8.662-1.407,12.221-3.917l.041.055c.11-.1.207-.179.317-.262.566-.414,1.118-.855,1.669-1.31a4.186,4.186,0,0,0,.386-.331,18.192,18.192,0,0,0,1.821-2.028l.083.041c.041-.069.11-.207.152-.276.469-.635.9-1.3,1.31-1.959.027-.041.1-.11.124-.152l-.055-.055c.041-.055.138-.166.179-.221a16.181,16.181,0,0,0,1.669-4.869.237.237,0,0,0,.152-.221,12.984,12.984,0,0,0,.152-1.628A9.4,9.4,0,0,0,282.559,189.642Z" transform="translate(-237.424 -187.737)"/>
    </clipPath>
  </defs>
  <g id="flipkart" transform="translate(1925.476 -47.016)">
    <path id="Path_1" data-name="Path 1" class="cls-1" d="M142.9,167.014c-.041-.138-.083-.276-.138-.414q-49.015.021-98,.014a.57.57,0,0,0-.152.317q0,38.008-.014,76a6.148,6.148,0,0,0,1.945,3.5c.041.014.138.027.179.041a4.8,4.8,0,0,0,1.931,1.048c.51-.027,1.007.193,1.517.138H90.723a3.278,3.278,0,0,0,1.158-.1c.014-.055.028-.152.041-.207s.028-.221.042-.3c.869-4.855,1.71-9.724,2.635-14.579l.083-.621c-3.752-.014-7.517,0-11.269-.014-.91-.027-1.848,0-2.759-.11-1.559-.069-3.131-.014-4.69-.165-1.931,0-3.848-.179-5.779-.179-1.517-.152-3.048-.1-4.579-.165-.993-.124-2.014-.069-3.02-.111-1.641-.179-3.31-.055-4.952-.234-1.738.014-3.476-.138-5.214-.179a.2.2,0,0,0,.028-.083c.579.014,1.145-.027,1.724-.041,1.283-.166,2.579-.055,3.862-.235,1.338,0,2.662-.179,4-.179,1.186-.166,2.386-.069,3.572-.235,1.393,0,2.759-.179,4.152-.193,1.145-.152,2.3-.069,3.448-.221,1.338.014,2.662-.193,4-.179,1.31-.152,2.648-.111,3.958-.249-.124-.51-.221-1.02-.331-1.531-.1-.317-.483-.248-.731-.29q-4.49-.642-8.952-1.269c.193-.152.455-.083.676-.111,2.317-.179,4.621-.386,6.938-.552.524-.027,1.035-.124,1.559-.138a18.026,18.026,0,0,0-.69-2.165c-4.952-.759-9.9-1.435-14.842-2.248,1.283-.207,2.579-.3,3.862-.441l.11-.042c4.1-.428,8.207-.911,12.3-1.31,5.2-.027,10.386-.014,15.587,0,.165-.027.455.055.483-.179.428-2.234.841-4.469,1.269-6.7a33.467,33.467,0,0,1,2.979-8.993,26.522,26.522,0,0,1,10.262-10.979,29.571,29.571,0,0,1,13.559-3.779,21.3,21.3,0,0,1,4.593.1,6.419,6.419,0,0,1,2.8,1.186,4.7,4.7,0,0,1,1.324,2.069,32.931,32.931,0,0,1,1.3,5.655,4.371,4.371,0,0,1-.262,2.345,2.966,2.966,0,0,1-1.89,1.228c-2.662.69-5.448.041-8.111.69a9.868,9.868,0,0,0-5.628,3.435,16,16,0,0,0-2.993,7.117c-.372,2.262-.841,4.524-1.214,6.8,2.621.014,5.255-.014,7.89.014a2.777,2.777,0,0,1,2.552,1.572,7.585,7.585,0,0,1,.248,4.042,14.71,14.71,0,0,1-1.255,4.372,4.938,4.938,0,0,1-2.786,2.662,5.562,5.562,0,0,1-2.083.207c-2.318,0-4.635.027-6.952,0-.372,1.7-.621,3.435-.952,5.159-.607,3.352-1.2,6.717-1.807,10.083-.014.11-.028.345-.028.469,1.09.055,2.179,0,3.269.027,8.083,0,16.18-.014,24.276,0a4.832,4.832,0,0,0,2.51-.607c.455-.165.731-.566,1.131-.786s.5-.676.828-.966a4.6,4.6,0,0,0,.759-2.042,1.237,1.237,0,0,0,.207-.027C142.89,217.774,142.931,192.394,142.9,167.014Z" transform="translate(-1698.282 -103.052)"/>
    <path id="Path_2" data-name="Path 2" class="cls-2" d="M57.363,47.271a14.963,14.963,0,0,1,3.6-.207q33.787.021,67.574,0c1.338-.055,2.51.7,3.752,1.09.993.4,2.028.717,3.021,1.145a1.642,1.642,0,0,1,.51.414c-.014,1.821,0,3.655,0,5.49a4.648,4.648,0,0,0,.1,1.448c.29.041.441.262.635.441a18.685,18.685,0,0,1,2.51,1.641c1.241.883,2.566,1.655,3.779,2.566a2.3,2.3,0,0,1-.1,1.062,5.743,5.743,0,0,0-.083,1.186q-49.015.021-98,.014a4.8,4.8,0,0,0-.138-1.338c-.028-.359-.152-.828.193-1.076,1.379-.966,2.841-1.835,4.193-2.855.842-.538,1.655-1.09,2.469-1.641a1.754,1.754,0,0,0,.11-.924c0-2,0-4,.014-6,.469-.607,1.283-.676,1.931-.979,1.311-.5,2.635-.979,3.932-1.476m.083.234c-1.766.676-3.545,1.324-5.31,2-.234.041-.359.248-.483.428.014.11.028.3.028.414-.014,1.655,0,3.31-.014,4.966a3.462,3.462,0,0,0,.11,1.2,3.422,3.422,0,0,1-.593.5c-2,1.3-3.931,2.7-5.931,3.986-.345.207-.731.483-.621.938-.069.248.055.455.317.386,4.331-.028,8.648.028,12.98-.041,6.442,0,12.869.014,19.311,0l.1-.041a3.754,3.754,0,0,0,.883.041q17.5,0,35.021,0c3.669.014,7.352,0,11.035,0,6.069,0,12.152.055,18.221.028.179-.041.234-.166.166-.386-.014-.221.069-.524-.166-.662-.966-.455-1.793-1.159-2.717-1.71-.331-.276-.759-.428-1.007-.8-.952-.538-1.835-1.2-2.773-1.793a2.811,2.811,0,0,1-.469-.441,3.36,3.36,0,0,0,.11-.91c-.014-1.752,0-3.5-.014-5.255a.762.762,0,0,0-.221-.772c-1.655-.593-3.3-1.228-4.938-1.835a5.641,5.641,0,0,0-1.628-.469h-70.5a5.38,5.38,0,0,0-.9.234Z" transform="translate(-1698.177)"/>
    <path id="Path_3" data-name="Path 3" class="cls-3" d="M96.612,70.9c1.214.51,2.51.8,3.738,1.3.662.262.869.979,1.159,1.559a5.744,5.744,0,0,1-.98.745c-1.269.855-2.566,1.683-3.821,2.566a3.462,3.462,0,0,1-.11-1.2c.014-1.655,0-3.31.014-4.966Zm80.208,1.3c1.228-.483,2.51-.814,3.738-1.3.014,1.752,0,3.5.014,5.255a3.36,3.36,0,0,1-.11.91c-1.076-.745-2.166-1.448-3.241-2.179a12.706,12.706,0,0,1-1.572-1.145C175.938,73.162,176.159,72.459,176.82,72.2Z" transform="translate(-1743.109 -20.553)"/>
    <path id="Path_4" data-name="Path 4" class="cls-4" d="M236.549,84.024a2.6,2.6,0,0,1,3.09,2.579,2.626,2.626,0,0,1-3.131,2.469,3,3,0,0,1-1.559-1.062,2.589,2.589,0,0,1-.207-2.51A2.466,2.466,0,0,1,236.549,84.024Zm39.353.869a2.652,2.652,0,0,1,2.579-.855,2.58,2.58,0,0,1,.648,4.759,2.663,2.663,0,0,1-3.172-.538A2.625,2.625,0,0,1,275.9,84.893Z" transform="translate(-1861.997 -31.815)"/>
    <path id="Path_5" data-name="Path 5" class="cls-5" d="M56.446,92.259a5.744,5.744,0,0,0,.98-.745l.1.1c.1.717.028,1.448.055,2.166-.041,2.152.041,4.317-.055,6.469-4.014,0-8.027-.028-12.042,0-.11-.455.276-.731.621-.938,2-1.283,3.931-2.69,5.931-3.986a3.422,3.422,0,0,0,.593-.5C53.88,93.941,55.177,93.114,56.446,92.259Zm74.981-.276a.858.858,0,0,1,.138-.483,12.729,12.729,0,0,0,1.572,1.145c1.076.731,2.166,1.435,3.241,2.179a2.833,2.833,0,0,0,.469.441c.938.593,1.821,1.255,2.773,1.793.248.372.676.524,1.007.8.924.552,1.752,1.255,2.717,1.71.234.138.152.441.166.662-4.014.014-8.014-.014-12.028.014a16.405,16.405,0,0,1-.041-1.641c0-2.207-.027-4.414-.014-6.621Z" transform="translate(-1699.025 -38.311)"/>
    <path id="Path_6" data-name="Path 6" class="cls-6" d="M143.509,63.249c-4.014.014-8.014-.014-12.028.014a16.4,16.4,0,0,1-.041-1.641c0-2.207-.028-4.414-.014-6.621a.858.858,0,0,1,.138-.483c.29-.579.51-1.283,1.172-1.545,1.228-.483,2.51-.814,3.738-1.3a.762.762,0,0,0-.221-.772c-1.655-.593-3.3-1.228-4.938-1.835a5.641,5.641,0,0,0-1.628-.469h-70.5a5.373,5.373,0,0,0-.9.234c-1.766.676-3.545,1.324-5.31,2-.234.041-.359.248-.483.428.014.11.028.3.028.414,1.214.51,2.51.8,3.738,1.3.662.262.869.979,1.159,1.559l.1.1c.1.717.028,1.448.055,2.166-.041,2.152.041,4.317-.055,6.469-4.014,0-8.027-.028-12.042,0-.069.248.055.455.317.386,4.331-.028,8.648.028,12.98-.041,6.442,0,12.869.014,19.311,0l.1-.041a3.754,3.754,0,0,0,.882.041q17.5,0,35.021,0c3.669.014,7.352,0,11.035,0,6.069,0,12.152.055,18.221.028.18-.041.235-.166.166-.386Zm-71.74-8.235a2.466,2.466,0,0,1,1.807-1.476,2.6,2.6,0,0,1,3.09,2.579,2.626,2.626,0,0,1-3.131,2.469,3,3,0,0,1-1.559-1.062,2.59,2.59,0,0,1-.207-2.51Zm41.16-.607a2.651,2.651,0,0,1,2.579-.855,2.58,2.58,0,0,1,.648,4.759,2.663,2.663,0,0,1-3.172-.538A2.625,2.625,0,0,1,112.929,54.407Z" transform="translate(-1699.024 -1.329)"/>
    <path id="Path_7" data-name="Path 7" class="cls-7" d="M555.08,189.327c.193.041-1.005-1.151-.771-1.206a2.574,2.574,0,0,1,2.069-.092c1.011.53.761,1.77.646,2.23a2.494,2.494,0,0,1-.761,1.172,1.33,1.33,0,0,1-.7.3c.124-.676-.276-.786-.3-1.476Z" transform="translate(-2137.66 -121.345)"/>
    <path id="Path_8" data-name="Path 8" class="cls-8" d="M228.687,188.925c-.028.69-.428.8-.3,1.476a1.331,1.331,0,0,1-.7-.3,2.5,2.5,0,0,1-.761-1.172c-.115-.46-.366-1.7.646-2.23a2.572,2.572,0,0,1,2.069.092c.234.055-.964,1.248-.771,1.206Z" transform="translate(-1855.361 -120.195)"/>
    <path id="Path_9" data-name="Path 9" class="cls-4" d="M302.6,261.68a.762.762,0,0,1,.621-.18,32.142,32.142,0,0,1-6.49,9.965,9.735,9.735,0,0,1-.982.769c-.332.243-.658.471-.982.7s-.633.442-.94.673a12.9,12.9,0,0,1-2.345,1.283,22.028,22.028,0,0,1-5.021,1.628,14.722,14.722,0,0,1-2.055.29,12.007,12.007,0,0,1-2.635.124c-.483.083-.911-.193-1.379-.138q-.61-.086-1.216-.207t-1.219-.29c-6.323-1.973-12.53-6.8-14.339-13.329a7.333,7.333,0,0,1-.123-1.333q.289.579.6,1.15a20.228,20.228,0,0,0,13.705,11.354c.489.223,1.019.145,1.488.338a3.852,3.852,0,0,1,1.255.124c1.421.027,2.841.014,4.262.014a2.087,2.087,0,0,0,.566-.124,18.167,18.167,0,0,0,6.848-1.705q.648-.294,1.276-.626.549-.289,1.071-.626t1-.7a22.848,22.848,0,0,0,6.259-7.657C302.112,262.634,302.373,262.131,302.6,261.68Z" transform="translate(-1886.99 -184.863)"/>
    <path id="Path_10" data-name="Path 10" class="cls-9" d="M261.994,327.572a29.571,29.571,0,0,1,13.559-3.779,21.3,21.3,0,0,1,4.593.1,6.419,6.419,0,0,1,2.8,1.186,5.943,5.943,0,0,1-1.186-.207,20.565,20.565,0,0,0-3.448-.165,36.223,36.223,0,0,0-9.89,1.172,23.22,23.22,0,0,0-4.9,1.986,24.44,24.44,0,0,0-6.966,5.71,29.893,29.893,0,0,0-6.455,14.1c-.469,2.745-1.007,5.476-1.435,8.234-.69.069-1.393.028-2.083.028q-4.552-.021-9.1-.055c-.648.027-1.283-.124-1.931-.083-5.517.027-11.035-.014-16.552-.014l.11-.042c4.1-.428,8.207-.911,12.3-1.31,5.2-.027,10.386-.014,15.587,0,.165-.027.455.055.483-.179.428-2.234.841-4.469,1.269-6.7a33.478,33.478,0,0,1,2.98-8.993A26.522,26.522,0,0,1,261.994,327.572Z" transform="translate(-1848.628 -238.493)"/>
    <path id="Path_11" data-name="Path 11" class="cls-10" d="M166.962,332.072a36.225,36.225,0,0,1,9.89-1.172,20.565,20.565,0,0,1,3.448.165,5.936,5.936,0,0,0,1.186.207,4.7,4.7,0,0,1,1.324,2.069,32.93,32.93,0,0,1,1.3,5.655,4.37,4.37,0,0,1-.262,2.345,2.966,2.966,0,0,1-1.89,1.228c-2.662.69-5.448.041-8.111.69a9.868,9.868,0,0,0-5.628,3.435,16,16,0,0,0-2.993,7.117c-.372,2.262-.841,4.524-1.214,6.8a12.261,12.261,0,0,0-.359,1.6c2.607.042,5.214,0,7.821.027.993-.027,1.986.027,2.979-.042a7.584,7.584,0,0,1,.248,4.042,14.709,14.709,0,0,1-1.255,4.372,4.938,4.938,0,0,1-2.786,2.662,5.562,5.562,0,0,1-2.083.207c-2.318,0-4.635.027-6.952,0-.372,1.7-.621,3.435-.952,5.159-.607,3.352-1.2,6.717-1.807,10.083-.014.111-.028.345-.028.469v.014c-6.028,0-12.042.014-18.069,0,.014-.055.028-.152.041-.207s.028-.221.042-.3c.014.11.027.317.042.414.372.042,1.048.234,1.145-.3.938-5.076,1.807-10.18,2.772-15.256a2.905,2.905,0,0,0-1.145-.014c-.055.193-.11.386-.179.579l.083-.621c-3.752-.014-7.517,0-11.269-.014-.911-.027-1.848,0-2.759-.11-1.559-.069-3.131-.014-4.69-.166-1.931,0-3.848-.179-5.779-.179-1.517-.152-3.048-.1-4.579-.166-.993-.124-2.014-.069-3.02-.11-1.641-.179-3.31-.055-4.952-.235-1.738.014-3.476-.138-5.214-.179a.2.2,0,0,0,.028-.083c.579.014,1.145-.028,1.724-.042,1.283-.165,2.579-.055,3.862-.234,1.338,0,2.662-.179,4-.179,1.186-.165,2.386-.069,3.572-.234,1.393,0,2.759-.179,4.152-.193,1.145-.152,2.3-.069,3.448-.221,1.338.014,2.662-.193,4-.179,1.31-.152,2.648-.111,3.958-.248-.124-.51-.221-1.02-.331-1.531-.1-.317-.483-.248-.731-.29q-4.49-.642-8.952-1.269c.193-.152.455-.083.676-.11,2.317-.18,4.621-.387,6.938-.552.524-.028,1.035-.124,1.559-.138a18.028,18.028,0,0,0-.69-2.166c-4.952-.759-9.9-1.435-14.842-2.248,1.283-.207,2.579-.3,3.862-.441,5.517,0,11.035.042,16.552.014.648-.041,1.283.111,1.931.083q4.552.041,9.1.055c.69,0,1.393.042,2.083-.027.428-2.759.966-5.49,1.435-8.235a29.891,29.891,0,0,1,6.455-14.1,24.439,24.439,0,0,1,6.966-5.711A23.217,23.217,0,0,1,166.962,332.072Z" transform="translate(-1747.168 -244.69)"/>
    <path id="Path_12" data-name="Path 12" class="cls-9" d="M411.159,546.3c2.621.014,5.256-.014,7.89.014a2.777,2.777,0,0,1,2.552,1.572c-.993.069-1.986.014-2.979.042-2.607-.027-5.214.014-7.821-.027A12.19,12.19,0,0,1,411.159,546.3Zm-20.345,12.925a2.9,2.9,0,0,1,1.145.014c-.966,5.076-1.835,10.18-2.772,15.256-.1.538-.773.345-1.145.3-.014-.1-.028-.3-.041-.414.869-4.855,1.71-9.724,2.635-14.579C390.7,559.61,390.759,559.417,390.814,559.224Z" transform="translate(-1994.317 -430.378)"/>
    <path id="Path_13" data-name="Path 13" class="cls-11" d="M282.559,189.642a1.463,1.463,0,0,1-.124-.69l-.111.014a1.569,1.569,0,0,0-1.338-1.214c-.5-.041-1.117-.028-1.407.441-.552.745-.29,1.7-.317,2.538,0,.055.014.152.014.207a9.64,9.64,0,0,1-.166,1.669,1.186,1.186,0,0,0-.124.538,12.72,12.72,0,0,1-1.338,3.752,1.392,1.392,0,0,0-.262.538,18.635,18.635,0,0,1-1.421,2.041,1.768,1.768,0,0,0-.221.234,13.475,13.475,0,0,1-1.145,1.2c-.1.055-.165.124-.248.179a8.983,8.983,0,0,1-1.559,1.228c-.069.041-.138.1-.221.152a22.179,22.179,0,0,1-12,3.338,22.415,22.415,0,0,1-10.318-2.179c-.055-.028-.193-.083-.248-.11a13.8,13.8,0,0,1-1.586-.9c-.11-.055-.221-.124-.345-.179a10.543,10.543,0,0,1-1.448-1.021c-.152-.138-.317-.248-.483-.372a11.689,11.689,0,0,1-1.434-1.31c-.11-.124-.221-.234-.331-.345a13.748,13.748,0,0,1-3.3-5.531,17.035,17.035,0,0,1-.579-5.159,1.849,1.849,0,0,0-2.372-.717c-.345.248-.386.7-.648,1.021A16.2,16.2,0,0,0,242.1,201.38a.224.224,0,0,0,.152.221c.552.51,1.089,1.035,1.641,1.531a2.195,2.195,0,0,0,.331.276c.552.455,1.145.869,1.724,1.3a2.936,2.936,0,0,0,.345.221,15.513,15.513,0,0,0,2.29,1.269,1.8,1.8,0,0,0,.207.138,24.871,24.871,0,0,0,8.345,2.386,4.459,4.459,0,0,1,.952.1c1.379.083,2.759.041,4.138.014,4.262-.372,8.662-1.407,12.221-3.917l.041.055c.11-.1.207-.179.317-.262.566-.414,1.118-.855,1.669-1.31a4.186,4.186,0,0,0,.386-.331,18.192,18.192,0,0,0,1.821-2.028l.083.041c.041-.069.11-.207.152-.276.469-.635.9-1.3,1.31-1.959.027-.041.1-.11.124-.152l-.055-.055c.041-.055.138-.166.179-.221a16.181,16.181,0,0,0,1.669-4.869.237.237,0,0,0,.152-.221,12.984,12.984,0,0,0,.152-1.628A9.4,9.4,0,0,0,282.559,189.642Z" transform="translate(-1864.511 -121.274)"/>
    <g id="Group_7" data-name="Group 7" class="cls-12" transform="translate(-1627.086 66.463)">
      <path id="Path_14" data-name="Path 14" class="cls-13" d="M230.167,188.4c1.118.351,3.687-.532,4.414.276m-3.77,3.126c1.071-.373,3.369-1.256,4.322-.736m-3.218,4.138c.518.168,1.539-.742,2.046-1.009a7.533,7.533,0,0,1,2.368-.83m-2.759,5.425a7.8,7.8,0,0,1,1.945-1.929c.765-.534,2.858-1.962,3.756-1.473m-4.138,5.977c.606-.482.853-1.335,1.49-1.841a12.994,12.994,0,0,1,2.74-1.1m-1.632,4.851c.181-1.334,1.535-2.943,2.828-2.828m-.828,4.69c.683-.068,1.26-1.6,1.722-2.115a4.4,4.4,0,0,1,2.324-1.288m-.092,5.058c-.044-.965.953-3.732,2.115-3.586m.828,4.506c-.048-1.14.541-4.571,1.931-4.69m1.1,6.529c-.264-1.595-.246-3.9,1.011-5.058m2.759,5.426c-.14-1.329-1.461-4.017,0-5.058M257.478,209a7.656,7.656,0,0,1-.736-4.414m4.6,3.77a9.167,9.167,0,0,1-1.273-2.738c-.11-.613.083-1.486-.014-1.952m4.506,3.31c-1.055-.69-1.348-3.226-1.012-4.322m4.138,2.943c-.75-1.61-1.551-2.858-1.563-4.69m4.6,1.747c-1.166-.784-2.654-2.21-2.483-3.77m5.7,1.287a9.9,9.9,0,0,1-4.966-3.4m6.437.368c-1.278-.274-5.5-1.922-5.241-3.586m6.621.368c-1.781-.653-4.371-1.24-5.793-2.483m6.713-.46a18,18,0,0,1-3.869-.644c-1.266-.218-2.44-.645-3.672-.92m6.437-1.287a16.081,16.081,0,0,1-6.161-1.287" transform="translate(-231.168 -186.959)"/>
    </g>
    <g id="Group_8" data-name="Group 8" transform="translate(-1925.416 74.035)">
      <path id="Path_16" data-name="Path 16" class="cls-14" d="M-1858.477,242.855c2-.3,4.3-.49,6,.754a4.057,4.057,0,0,1,1.358,3.507,6.1,6.1,0,0,1-2.79,5.468,9.507,9.507,0,0,1-5.506.792,4.165,4.165,0,0,1-3.13-1.961C-1863.983,248.135-1862.211,243.5-1858.477,242.855Zm-59.812,2.376a2.358,2.358,0,0,1,2.3-2.112c8.712,0,17.386.038,26.06,0a2.523,2.523,0,0,1,2.413,1.169c.641,1.131.075,2.376,0,3.545-.264,1.584-.188,3.7-2.036,4.3-6.336.189-12.672,0-19.008.075-.6,4-1.169,7.957-1.773,11.917,0,.151.038.491.038.641,4.639-.038,9.277,0,13.916-.038a2.38,2.38,0,0,1,2.527,2.376c-.113,1.4-.415,2.753-.6,4.148a2.456,2.456,0,0,1-1.886,2c-5.167.113-10.409-.113-15.575.113-.83,5.695-1.81,11.389-2.678,17.084a2.342,2.342,0,0,1-2.15,2.149q-3.224.057-6.449,0a2.3,2.3,0,0,1-2.15-2.828q3.452-22.287,7.053-44.538Zm38.316-2.037c1.961-.151,3.96-.038,5.921-.075a2.43,2.43,0,0,1,2.527,2.112,26.171,26.171,0,0,1-.377,2.941c-1.584,10.107-3.206,20.214-4.79,30.321-.226,1.622-.641,3.356-.151,5.016.566,1.659,3.092.943,3.7,2.677.377,1.4-.038,2.866-.151,4.3-.113,1.886-2.263,2.3-3.733,2.716-3.205.6-7.09.151-9.391-2.49-1.659-1.923-1.773-4.639-1.433-7.052q3-19.233,6.034-38.5A2.281,2.281,0,0,1-1879.974,243.194Zm74.86,2.037a2.383,2.383,0,0,1,2.263-2.112h5.732a2.393,2.393,0,0,1,2.263,2.866c-1.32,8.372-2.677,16.745-4,25.116,2-.3,4.262-.679,5.657-2.3a35.077,35.077,0,0,0,5.694-8.9c.49-1.245.754-3.055,2.376-3.281,2.15-.075,4.337-.038,6.486,0a2.276,2.276,0,0,1,2.074,2.979,26.818,26.818,0,0,1-2.489,5.619,42.6,42.6,0,0,1-7.769,9.843c1.4,4.186,3.168,8.259,4.714,12.37.452,1.358,1.547,2.941.528,4.262-1.169,1.584-3.357.791-4.978.98-1.7-.189-4.148.679-5.091-1.244-1.773-4.111-3.243-8.334-5.054-12.445a22.8,22.8,0,0,1-3.206-.038l-.3.6c-.566,3.771-1.169,7.542-1.773,11.313a2.244,2.244,0,0,1-1.923,1.773c-2,.075-4.035.037-6.072.037a2.351,2.351,0,0,1-2.037-1.32,4.164,4.164,0,0,1-.037-2.451q3.507-21.836,6.939-43.671Zm104.8,4.111a2.346,2.346,0,0,1,2.338-1.735c1.509.038,3.055-.038,4.6.038a2.263,2.263,0,0,1,2.074,2.489c-.226,2.15-.754,4.3-.905,6.449,1.471,0,2.979-.038,4.45,0a2.327,2.327,0,0,1,2.187,2.64c-.189,1.17-.453,2.3-.641,3.47a2.454,2.454,0,0,1-1.961,1.923c-1.81.113-3.583-.075-5.355.113-.754,5.053-1.584,10.107-2.376,15.161a5.34,5.34,0,0,0,.49,3.507c1.018,1.245,2.791.792,4.224.943a2.481,2.481,0,0,1,1.659,2.716c-.189,1.282-.226,2.564-.528,3.809-.453,1.4-2.074,1.659-3.319,2-3.432.905-7.392.905-10.446-1.094-2.828-1.923-3.281-5.657-2.98-8.825.792-6.109,2.037-12.181,2.715-18.328-1.056.038-2.338.189-3.13-.754-.905-.943-.453-2.338-.3-3.508.227-1.244.189-2.866,1.546-3.545,1.093-.415,2.338-.113,3.507-.264C-1701.744,254.131-1701.065,251.717-1700.311,249.341Zm-21.308,12.219a20.536,20.536,0,0,1,8.523-5.317,2.392,2.392,0,0,1,3.243,2.15c-.264,2.074-.754,4.11-1.094,6.147a2.4,2.4,0,0,1-2.037,2,17.831,17.831,0,0,0-9.466,5.506c-.641.792-1.584,1.546-1.7,2.64-.792,5.28-1.622,10.56-2.451,15.839a2.327,2.327,0,0,1-2.263,2.15h-5.733a2.36,2.36,0,0,1-2.338-2.564c1.659-10.447,3.319-20.855,4.94-31.3a2.3,2.3,0,0,1,1.923-2.187c1.4-.075,2.791-.038,4.224-.038a2.266,2.266,0,0,1,2.187,2.188c0,1.622-.151,3.281-.188,4.94A17.126,17.126,0,0,0-1721.618,261.56Zm-140.97-4.789c2.036-.415,4.148-.075,6.185-.189a2.319,2.319,0,0,1,2.6,1.773,12.093,12.093,0,0,1-.264,3.092q-2.319,14.539-4.6,29.076a2.315,2.315,0,0,1-2.187,2.15c-2.036,0-4.073.038-6.147-.037a2.373,2.373,0,0,1-1.886-2.866c1.622-10.069,3.168-20.1,4.79-30.17C-1864.021,258.506-1863.719,257.223-1862.588,256.771Zm122.038.491a60.3,60.3,0,0,0-17.046-1.245c-5.091.641-10.22,2.942-13.35,7.128-4.337,5.506-5.808,12.9-4.828,19.762.528,3.281,1.961,6.6,4.639,8.636,2.489,1.923,5.845,2.187,8.863,1.7,4.223-.83,7.806-3.544,10.748-6.562.151,1.282-.151,2.564-.075,3.809a2.339,2.339,0,0,0,2.3,2.187h3.847a2.311,2.311,0,0,0,2.15-2.15q2.432-15.33,4.827-30.585A2.381,2.381,0,0,0-1740.55,257.261Zm-10.6,17.762a29.086,29.086,0,0,1-6,7.58c-1.357,1.131-3.093,2.3-4.94,1.924-1.81-.377-2.678-2.263-3.093-3.884a16.586,16.586,0,0,1,2.3-12.483,8.062,8.062,0,0,1,4.714-3.508,16.445,16.445,0,0,1,8.335.415l.151.151C-1750.016,268.5-1750.657,271.743-1751.147,275.024Zm-63.433-5.657c-.038-3.771-1.056-7.731-3.7-10.56a9.543,9.543,0,0,0-7.165-2.979c-4.375-.15-8.485,2-11.691,4.865-.717.566-1.207,1.4-2,1.848,0-1.245.113-2.489.075-3.771a2.239,2.239,0,0,0-2.187-2.187h-3.847a2.369,2.369,0,0,0-2.263,2.225q-3.564,22.628-7.165,45.255a2.341,2.341,0,0,0,2.3,2.791,50.524,50.524,0,0,0,6.336-.151c1.66-.453,1.622-2.376,1.886-3.771.6-3.319,1.018-6.638,1.4-9.994,7.429,1.433,16.066.453,21.609-5.167A26.038,26.038,0,0,0-1814.58,269.367Zm-10.56,3.809a15.2,15.2,0,0,1-3.884,9.5c-3.13,2.98-7.882,2.564-11.729,1.547a2.587,2.587,0,0,1-.226-.453c.6-3.281.905-6.6,1.66-9.843,2.112-3.469,4.676-6.977,8.334-8.9a3.5,3.5,0,0,1,4.186.754C-1825.139,267.858-1824.988,270.649-1825.139,273.176Z" transform="translate(1925.416 -242.632)"/>
    </g>
  </g>
</svg>
