<svg xmlns="http://www.w3.org/2000/svg" viewBox="0 0 90 90">
  <defs>
    <style>
      .cls-1 {
        fill: #fff;
      }

      .cls-2, .cls-3 {
        stroke: none;
      }

      .cls-3 {
        fill: #e6e6e6;
      }
    </style>
  </defs>
  <g id="Subtraction_1" data-name="Subtraction 1" class="cls-1">
    <path class="cls-2" d="M 45 89.5 C 38.99237823486328 89.5 33.16469573974609 88.32347869873047 27.67883491516113 86.00314331054688 C 22.37990570068359 83.76187133789062 17.62083435058594 80.55317687988281 13.53382396697998 76.46617889404297 C 9.446846961975098 72.37920379638672 6.238141059875488 67.62013244628906 3.996858835220337 62.32116317749023 C 1.676517605781555 56.83530426025391 0.5 51.00762176513672 0.5 45 C 0.5 38.99237823486328 1.676517605781555 33.16469573974609 3.996858835220337 27.67883491516113 C 6.238141059875488 22.3798828125 9.446846961975098 17.62081146240234 13.53382396697998 13.53382396697998 C 17.62081146240234 9.446846961975098 22.3798828125 6.238141059875488 27.67883491516113 3.996858835220337 C 33.16469573974609 1.676517605781555 38.99237823486328 0.5 45 0.5 C 51.00762176513672 0.5 56.83530426025391 1.676517605781555 62.32116317749023 3.996858835220337 C 67.62013244628906 6.238141059875488 72.37920379638672 9.446846961975098 76.46617889404297 13.53382396697998 C 80.55317687988281 17.62083435058594 83.76187133789062 22.37990570068359 86.00314331054688 27.67883491516113 C 88.32347869873047 33.16469573974609 89.5 38.99237823486328 89.5 45 C 89.5 51.00762176513672 88.32347869873047 56.83530426025391 86.00314331054688 62.32116317749023 C 83.76187133789062 67.62010955810547 80.55317687988281 72.37917327880859 76.46617889404297 76.46617889404297 C 72.37917327880859 80.55317687988281 67.62010955810547 83.76187133789062 62.32116317749023 86.00314331054688 C 56.83530426025391 88.32347869873047 51.00762176513672 89.5 45 89.5 Z M 45 14.50030612945557 C 40.88284683227539 14.50030612945557 36.88856506347656 15.30679988861084 33.12809371948242 16.89736557006836 C 29.49616432189941 18.4335765838623 26.23444747924805 20.63267135620117 23.43356513977051 23.43356513977051 C 20.63267135620117 26.23444747924805 18.4335765838623 29.49616432189941 16.89736557006836 33.12809371948242 C 15.30679988861084 36.88856506347656 14.50030612945557 40.88284683227539 14.50030612945557 45 C 14.50030612945557 49.11715316772461 15.30679988861084 53.11143493652344 16.89736557006836 56.87190628051758 C 18.43356513977051 60.50383377075195 20.63265800476074 63.76554107666016 23.43356513977051 66.56644439697266 C 26.23444747924805 69.36733245849609 29.49616432189941 71.56642150878906 33.12809371948242 73.10264587402344 C 36.88858795166016 74.69321441650391 40.88288116455078 75.49970245361328 45 75.49970245361328 C 49.11711883544922 75.49970245361328 53.11141204833984 74.69321441650391 56.87190628051758 73.10264587402344 C 60.50383377075195 71.56643676757812 63.76554107666016 69.36734008789062 66.56644439697266 66.56644439697266 C 69.36734008789062 63.76554107666016 71.56643676757812 60.50383377075195 73.10264587402344 56.87190628051758 C 74.69321441650391 53.11141204833984 75.49970245361328 49.11711883544922 75.49970245361328 45 C 75.49970245361328 40.88288116455078 74.69321441650391 36.88858795166016 73.10264587402344 33.12809371948242 C 71.56642150878906 29.49616432189941 69.36733245849609 26.23444747924805 66.56644439697266 23.43356513977051 C 63.76554107666016 20.63265800476074 60.50383377075195 18.43356513977051 56.87190628051758 16.89736557006836 C 53.11143493652344 15.30679988861084 49.11715316772461 14.50030612945557 45 14.50030612945557 Z"/>
    <path class="cls-3" d="M 45 89 C 50.94033813476562 89 56.70248794555664 87.83677673339844 62.12639999389648 85.54264831542969 C 67.36573791503906 83.32657623291016 72.07138824462891 80.15386199951172 76.11262512207031 76.11264038085938 C 80.15386199951172 72.07138824462891 83.32657623291016 67.36573791503906 85.54264831542969 62.12639999389648 C 87.83677673339844 56.70248794555664 89 50.94033813476562 89 45 C 89 39.05966186523438 87.83677673339844 33.29751205444336 85.54264831542969 27.87361335754395 C 83.32658386230469 22.63427543640137 80.15386199951172 17.92862510681152 76.11264038085938 13.8873872756958 C 72.07140350341797 9.846162796020508 67.36575317382812 6.673437595367432 62.12639999389648 4.45734977722168 C 56.70248794555664 2.163224935531616 50.94033813476562 1 45 1 C 39.05966186523438 1 33.29751205444336 2.163224935531616 27.87361335754395 4.45734977722168 C 22.63427543640137 6.673437595367432 17.92862510681152 9.846150398254395 13.8873872756958 13.88737487792969 C 9.846150398254395 17.92862510681152 6.673437595367432 22.63427543640137 4.45734977722168 27.87361335754395 C 2.163224935531616 33.29751205444336 1 39.05966186523438 1 45 C 1 50.94033813476562 2.163224935531616 56.70248794555664 4.45734977722168 62.12638854980469 C 6.673437595367432 67.36575317382812 9.846162796020508 72.07140350341797 13.88737487792969 76.11262512207031 C 17.92862510681152 80.15386199951172 22.63427543640137 83.32658386230469 27.87361335754395 85.54264831542969 C 33.29751205444336 87.83677673339844 39.05966186523438 89 45 89 M 45 14.00030040740967 C 49.18442535400391 14.00030040740967 53.2442512512207 14.82007503509521 57.06668853759766 16.43686294555664 C 60.75823593139648 17.99828720092773 64.07337188720703 20.23336219787598 66.91999053955078 23.07999992370605 C 69.76663970947266 25.9266242980957 72.001708984375 29.24176216125488 73.56314086914062 32.93331146240234 C 75.17992401123047 36.7557487487793 75.99970245361328 40.81557464599609 75.99970245361328 45 C 75.99970245361328 49.18442535400391 75.17992401123047 53.2442512512207 73.56314086914062 57.06668853759766 C 72.001708984375 60.75823593139648 69.76663970947266 64.07337188720703 66.91999816894531 66.91999053955078 C 64.07337188720703 69.76663970947266 60.75823593139648 72.001708984375 57.06668853759766 73.56314086914062 C 53.2442512512207 75.17992401123047 49.18442535400391 75.99970245361328 45 75.99970245361328 C 40.81557464599609 75.99970245361328 36.7557487487793 75.17992401123047 32.93331146240234 73.56314086914062 C 29.24176216125488 72.001708984375 25.9266242980957 69.76663970947266 23.08001327514648 66.91999816894531 C 20.23336219787598 64.07337188720703 17.99828720092773 60.75823593139648 16.43686294555664 57.06668853759766 C 14.82007503509521 53.2442512512207 14.00030040740967 49.18442535400391 14.00030040740967 45 C 14.00030040740967 40.81557464599609 14.82007503509521 36.7557487487793 16.43686294555664 32.93331146240234 C 17.99828720092773 29.24176216125488 20.23336219787598 25.9266242980957 23.07999992370605 23.08001327514648 C 25.9266242980957 20.23336219787598 29.24176216125488 17.99828720092773 32.93331146240234 16.43686294555664 C 36.7557487487793 14.82007503509521 40.81557464599609 14.00030040740967 45 14.00030040740967 M 45 90 C 38.92509841918945 90 33.03188705444336 88.81020355224609 27.48406219482422 86.46365356445312 C 22.12551307678223 84.19715881347656 17.31302452087402 80.95247650146484 13.18027496337891 76.81974029541016 C 9.047537803649902 72.68698883056641 5.802849769592285 67.87448883056641 3.536350011825562 62.51594924926758 C 1.189800024032593 56.96811294555664 0 51.07490158081055 0 45 C 0 38.92509841918945 1.189800024032593 33.03188705444336 3.536350011825562 27.48406219482422 C 5.802849769592285 22.12551307678223 9.047537803649902 17.31302452087402 13.18027496337891 13.18027496337891 C 17.31302452087402 9.047537803649902 22.12551307678223 5.802849769592285 27.48406219482422 3.536350011825562 C 33.03188705444336 1.189800024032593 38.92509841918945 0 45 0 C 51.07490158081055 0 56.96811294555664 1.189800024032593 62.51594924926758 3.536350011825562 C 67.87448883056641 5.802849769592285 72.68698883056641 9.047537803649902 76.81974029541016 13.18027496337891 C 80.95247650146484 17.31302452087402 84.19715881347656 22.12551307678223 86.46365356445312 27.48406219482422 C 88.81020355224609 33.03188705444336 90 38.92509841918945 90 45 C 90 51.07490158081055 88.81020355224609 56.96811294555664 86.46365356445312 62.51594924926758 C 84.19715881347656 67.87448883056641 80.95247650146484 72.68698883056641 76.81974029541016 76.81974029541016 C 72.68698883056641 80.95247650146484 67.87448883056641 84.19715881347656 62.51594924926758 86.46365356445312 C 56.96811294555664 88.81020355224609 51.07490158081055 90 45 90 Z M 45 15.00030040740967 C 40.95013809204102 15.00030040740967 37.0213737487793 15.79349994659424 33.3228759765625 17.35786247253418 C 29.75054931640625 18.86886215209961 26.54224967956543 21.03196334838867 23.78711318969727 23.78711318969727 C 21.03196334838867 26.54224967956543 18.86886215209961 29.75054931640625 17.35786247253418 33.3228759765625 C 15.79349994659424 37.0213737487793 15.00030040740967 40.95013809204102 15.00030040740967 45 C 15.00030040740967 49.04986190795898 15.79349994659424 52.9786262512207 17.35786247253418 56.6771240234375 C 18.86886215209961 60.24945068359375 21.03196334838867 63.45774841308594 23.78711318969727 66.212890625 C 26.54224967956543 68.96804046630859 29.75054931640625 71.13113403320312 33.3228759765625 72.64213562011719 C 37.0213737487793 74.20649719238281 40.95013809204102 74.99970245361328 45 74.99970245361328 C 49.04986190795898 74.99970245361328 52.9786262512207 74.20649719238281 56.6771240234375 72.64213562011719 C 60.24945068359375 71.13113403320312 63.45774841308594 68.96804046630859 66.212890625 66.212890625 C 68.96804046630859 63.45774841308594 71.13113403320312 60.24945068359375 72.64213562011719 56.6771240234375 C 74.20649719238281 52.9786262512207 74.99970245361328 49.04986190795898 74.99970245361328 45 C 74.99970245361328 40.95013809204102 74.20649719238281 37.0213737487793 72.64213562011719 33.3228759765625 C 71.13113403320312 29.75054931640625 68.96804046630859 26.54224967956543 66.212890625 23.78711318969727 C 63.45774841308594 21.03196334838867 60.24945068359375 18.86886215209961 56.6771240234375 17.35786247253418 C 52.9786262512207 15.79349994659424 49.04986190795898 15.00030040740967 45 15.00030040740967 Z"/>
  </g>
</svg>
