<svg xmlns="http://www.w3.org/2000/svg" viewBox="0 0 78.388 78.388">
  <defs>
    <style>
      .cls-1 {
        fill: #44009c;
      }
    </style>
  </defs>
  <path id="np_tag_888732_000000" class="cls-1" d="M92.78,58.956,54.85,21.026a6.887,6.887,0,0,0-5.31-2.276H24.254a7.449,7.449,0,0,0-7.586,7.586V51.621a6.887,6.887,0,0,0,2.276,5.31l37.93,37.93a7.333,7.333,0,0,0,10.621,0L92.78,69.577A7.333,7.333,0,0,0,92.78,58.956ZM34.367,41.508a5.059,5.059,0,1,1,5.059-5.059A5.073,5.073,0,0,1,34.367,41.508Z" transform="translate(-16.668 -18.75)"/>
</svg>
