<svg xmlns="http://www.w3.org/2000/svg" xmlns:xlink="http://www.w3.org/1999/xlink" viewBox="0 0 106.29 106.291">
  <defs>
    <style>
      .cls-1 {
        fill: #fff;
      }

      .cls-2 {
        filter: url(#np_tag_1487166_000000);
      }
    </style>
    <filter id="np_tag_1487166_000000" x="0" y="0" width="106.29" height="106.291" filterUnits="userSpaceOnUse">
      <feOffset dy="5" input="SourceAlpha"/>
      <feGaussianBlur stdDeviation="4" result="blur"/>
      <feFlood flood-opacity="0.161"/>
      <feComposite operator="in" in2="blur"/>
      <feComposite in="SourceGraphic"/>
    </filter>
  </defs>
  <g class="cls-2" transform="matrix(1, 0, 0, 1, 0, 0)">
    <path id="np_tag_1487166_000000-2" data-name="np_tag_1487166_000000" class="cls-1" d="M50.2,9.9a3.506,3.506,0,0,0-2.9-1L15.5,12.4a3.506,3.506,0,0,0-3.1,3.1L8.9,47.3a3.505,3.505,0,0,0,1,2.9L48.1,88.4a9.5,9.5,0,0,0,13.4,0L88.4,61.5a9.5,9.5,0,0,0,0-13.4ZM40.3,40.3a10.8,10.8,0,1,1,3.176-7.653A10.8,10.8,0,0,1,40.3,40.3Z" transform="translate(3.13 -1.87)"/>
  </g>
</svg>
